<svg xmlns="http://www.w3.org/2000/svg" xml:space="preserve" viewBox="0 0 64 64">
  <path fill="#3d918a" d="M28.0014 53.0056c-3.389-1.718-6.2796-4.002-7.9144-6.9813.0826.8707.1412 1.2355.2046 1.8212-1.3828-.8954-3.2274-2.4213-4.6032-5.5778-.0488.3658.0826 1.822.0499 2.2194-1.2725-1.017-2.7296-2.9578-3.207-5.533-.0522.4633-.2506 1.4678-.192 2.1483-.3675-.7827-.977-2.6607-1.3677-4.5821-.428-2.1037-.2051-5.6627.6192-7.6468.6991-1.683 1.473-2.344 1.473-2.344s16.9001 20.59 14.9376 26.476zm8.0073-.0896c.654-.3317 1.2896-.3897 1.9012-.7772 2.5569-1.6201 4.694-3.7102 6.0132-6.1145-.0826.8707-.1412 1.2355-.2046 1.8212 1.3828-.8954 3.2275-2.4213 4.6032-5.5778.0488.3658-.0826 1.822-.0498 2.2194 1.2724-1.017 2.7295-2.9578 3.207-5.533.0521.4633.2506 1.4678.192 2.1483.3674-.7827.9769-2.6607 1.3677-4.5821.4278-2.1037.205-5.6627-.6192-7.6468-.6992-1.683-1.473-2.344-1.473-2.344S34.0461 47.0299 36.0086 52.9159z"/>
  <path fill="#a2e3de" d="M32 54.396c-3.0764.0278-5.5622-2.1562-6.803-5.3187-.9668-2.464-3.0373-4.9932-6.7232-7.621-3.429-2.4447-7.213-7.0269-6.5593-12.4483.287-2.3462 1.053-2.1551 1.093-3.791.0399-1.636-2.5914-6.858-2.035-11.8105.3128-2.7832 1.2479-3.6448 1.7599-4.1546.2879-.2868 2.6048.8917 3.7716 1.6379 2.4688 1.5787 5.0189 4.093 5.0189 4.093S27.4326 12.78 32 12.808c4.5674.028 6.0952.8655 10.4763 2.1748 0 0 2.55-2.5143 5.0189-4.093 1.1669-.7462 3.4837-1.9247 3.7717-1.638.512.5099 1.447 1.3715 1.7597 4.1547.5565 4.9525-2.0748 10.1745-2.0349 11.8105.04 1.6359.806 1.4448 1.093 3.791.6538 5.4214-3.1302 10.0036-6.5593 12.4484-3.6858 2.6277-5.604 5.2222-6.7232 7.621-.5009 1.0734-1.0843 2.0215-1.7545 2.8087-1.3302 1.5626-3.002 2.4915-5.0477 2.51z"/>
  <path d="M26.2628 34.862c-.6874-.3817-2.3281-.904-3.385-1.1633-1.0567-.2592-1.9753-1.0517-1.9753-1.0517s.2814 1.2221 1.1814 1.6109c1.0211.441 2.919.9283 3.485 1.1462 1.1024.4242 1.6482 1.2132 2.2501 1.4563-.1867-1.087-.8689-1.617-1.5562-1.9985zm11.4184 0c.6874-.3817 2.3281-.904 3.385-1.1633 1.0567-.2592 1.9753-1.0517 1.9753-1.0517s-.2814 1.2221-1.1814 1.6109c-1.0211.441-2.919.9283-3.485 1.1462-1.1024.4242-1.6482 1.2132-2.2501 1.4563.1867-1.087.8689-1.617 1.5562-1.9985z"/>
  <ellipse cx="32.0051" cy="51.7182" rx="2.9942" ry="2.2981"/>
  <path fill-opacity=".3817" d="M15.2028 23.1356s-1.8188-4.4662-2.074-6.853c-.2552-2.3869.3087-3.7826.5274-3.8138.2188-.0313.912 2.4405 1.6623 3.8589.7503 1.4183 2.1815 3.5473 2.869 4.0785.6875.5313-2.9847 2.7295-2.9847 2.7295zm34.1814 0s1.8187-4.4662 2.074-6.853c.2552-2.3869-.3087-3.7826-.5275-3.8138-.2187-.0313-.912 2.4405-1.6623 3.8589-.7502 1.4183-2.1814 3.5473-2.869 4.0785-.6874.5313 2.9848 2.7295 2.9848 2.7295z"/>
</svg>
